PathFileType	4	(X/Y/Z)	data/BAA/BAA01/Baseline/Walk05.trc
DataRate	CameraRate	NumFrames	NumMarkers	Units	OrigDataRate	OrigDataStartFrame	OrigNumFrames
200.0	200.0	16	12	m	200.0	472	945
Frame#	Time	RASI			SPL6			LKNE			RHIP			LASI			RKNE			RTOE			LTOE			TAIL			LHIP			LANK			RANK			
		X1	Y1	Z1	X2	Y2	Z2	X3	Y3	Z3	X4	Y4	Z4	X5	Y5	Z5	X6	Y6	Z6	X7	Y7	Z7	X8	Y8	Z8	X9	Y9	Z9	X10	Y10	Z10	X11	Y11	Z11	X12	Y12	Z12	

473	2.36	-0.1882377650073602	0.06515723618141303	-0.003168964611641239	-0.186044885168871	0.07199254806785739	-0.02552343856067992	-0.1769307763216227	0.02821943041666208	-0.04105587905926829	-0.2044242583308173	0.05671853612014959	-0.007322659473150995	-0.1803429627452698	0.05725583973908691	-0.04209901881380043	-0.1860633581984705	0.03818614301213781	0.01118881966218883	-0.2066859596524299	0.02479090598795219	0.007376996733627011	-0.193446280090424	0.006304525950293671	-0.03076308459198149	-0.2118233531094076	0.05379335405453169	-0.02767652858782969	-0.1998497082977367	0.05014552205928152	-0.04212659768554104	nan	nan	nan	nan	nan	nan	
474	2.365	-0.1867809099571479	0.06565820400621997	-0.003049314976070741	-0.1846692163881212	0.07214150597500954	-0.02562873766959082	-0.1759309676353375	0.02814812347273511	-0.04119453350744517	-0.2029168362022047	0.05680661291836164	-0.007174484199243371	-0.1791402577078562	0.05729010119492917	-0.04209287722751432	-0.1840043551530434	0.0386400846285167	0.01130846187734243	-0.2018218361888099	0.02444809575522033	0.008467796335104824	-0.1933093029142262	0.006472346332848148	-0.03074347219824063	-0.2105223190299445	0.05403081475495405	-0.02743770816635369	-0.198686624291828	0.05027681347607283	-0.0419637160251881	nan	nan	nan	nan	nan	nan	
475	2.37	-0.1853192724715297	0.06615599013852848	-0.002967250914052358	-0.1832843523233336	0.07230586220050766	-0.02574245900222897	-0.1749319217997663	0.02810363381387058	-0.04130370538465357	-0.201399316686472	0.05692135311930848	-0.007002746815007938	-0.1779453464100229	0.05734237150687491	-0.04210755468075857	-0.1819175115119069	0.03903757435549385	0.01136466966212119	-0.1970013952728618	0.02382343764229003	0.009372821793467089	-0.1931705797224996	0.006592916759828889	-0.03067844365068518	-0.2092107837351588	0.05428497969032108	-0.02716808765274532	-0.1975295098027979	0.05040952411902828	-0.04177111690977535	nan	nan	nan	nan	nan	nan	
476	2.375	-0.1838475661651496	0.06665028343801047	-0.002918878698108428	-0.1818870893396216	0.07247968076857454	-0.02586227450809812	-0.173928441124771	0.02807771321577879	-0.04137722643128978	-0.1998719807882624	0.0570873849708398	-0.006798165846507242	-0.1767536625879639	0.05740251020753437	-0.04213717096462292	-0.1798254019275242	0.03939600778251202	0.01136434009666327	-0.1922351424143046	0.02298432530288633	0.01008417954091015	-0.1930270874707332	0.006673631479497653	-0.03057602416430756	-0.2078830366381547	0.054548334278937	-0.02686590247758819	-0.196371068015053	0.05053720001692238	-0.04154920779504109	nan	nan	nan	nan	nan	nan	
477	2.38	-0.1823620256421242	0.06714468563004458	-0.002899178552127222	-0.1804746682374737	0.0726573608896193	-0.02598613390720748	-0.1729174513934453	0.02806069682986741	-0.04141191916622342	-0.1983328729679738	0.05731558084554529	-0.006562353326222607	-0.1755616147464271	0.05745990960725517	-0.04217428936281906	-0.1777454313885972	0.03973648347421901	0.01131513306064365	-0.1875252822808641	0.02201980099141503	0.0106174379842751	-0.1928710750392999	0.00674299380390446	-0.03046486640571383	-0.2065350757042938	0.05481411022942025	-0.02653043070674643	-0.1952051970282047	0.05065333542411531	-0.04129850551768354	nan	nan	nan	nan	nan	nan	
478	2.385	-0.1808585566772263	0.06764184626151459	-0.002904107412269298	-0.1790461007027087	0.07283387138729816	-0.02611133849187675	-0.1718985455736482	0.02804318216622095	-0.04140794811503021	-0.1967801945492991	0.05760792179480512	-0.006298103236468153	-0.1743666461319556	0.05750499897061183	-0.04220982358999706	-0.1756884820288799	0.04007818924265098	0.01122614702315912	-0.1828722815411231	0.02102659338781952	0.01100524759813349	-0.1926963595577297	0.006827351935408729	-0.03037073667051277	-0.2051646462512652	0.05507540512751263	-0.02616192619851945	-0.1940271110334312	0.05075291626734256	-0.04101993039855392	nan	nan	nan	nan	nan	nan	
479	2.39	-0.1793323796550258	0.06814110057418286	-0.002930227559366516	-0.17760254439554	0.07300565323639219	-0.02623466450707082	-0.1708735387537706	0.02801788809005207	-0.04136869461352252	-0.1952140390317679	0.05796259539121464	-0.006002139470693747	-0.1731676075585833	0.05753079566485313	-0.04223370265096366	-0.1736584934685104	0.04043454505489219	0.01110824521255455	-0.1782799858296155	0.02009080074357325	0.01128993276934828	-0.1925040819818231	0.006935558653974102	-0.0303006389294367	-0.203770993109767	0.05532518288169331	-0.02575996433601513	-0.1928328264616854	0.05083405809776448	-0.0407154715191566	nan	nan	nan	nan	nan	nan	
480	2.395	-0.1777781656991874	0.06863932165249648	-0.002972458056031428	-0.1761469227947406	0.07317072966809736	-0.02635204441714012	-0.1698452673756633	0.02798105204628017	-0.04129962848376327	-0.1936341490586175	0.05837086576536235	-0.005671638979539633	-0.1719650571097385	0.05753408780647529	-0.04223648147189248	-0.1716519910867185	0.04081256745095846	0.0109742205148726	-0.1737576493159938	0.01927285978299079	0.01151557890027439	-0.1922997515754549	0.007063617074531695	-0.03024818233147002	-0.202356013641706	0.05555877185847169	-0.02532240068337832	-0.1916188695143411	0.05090015675155803	-0.0403889545967351	nan	nan	nan	nan	nan	nan	
481	2.4	-0.1761910956713694	0.06913093693542743	-0.003023185819180804	-0.1746828634814123	0.07332797956792846	-0.02645801219340694	-0.1688162251690399	0.02793288276012338	-0.04120651318263219	-0.19203710043204	0.05881328327891289	-0.005313193712499773	-0.1707606776246543	0.05751571720156571	-0.04221076272037094	-0.1696590273270925	0.0412134685475333	0.01083869860941622	-0.169319022208572	0.01860093196084063	0.01172045669593606	-0.1920879740824921	0.007204452976247241	-0.03020431368587555	-0.2009245743451962	0.0557760574731225	-0.02484760911933914	-0.1903821219857592	0.0509600918201287	-0.04004636466594357	nan	nan	nan	nan	nan	nan	
482	2.405	-0.1745683717915205	0.06960757457430557	-0.003072478090906005	-0.1732133615855186	0.07347640870264521	-0.02654587677529525	-0.1677874686707934	0.0278771001288819	-0.04109423131032815	-0.1904173103111249	0.05926412506988818	-0.004940402689167503	-0.1695557786849164	0.05748009803691542	-0.04215179193738816	-0.1676659897320811	0.04163268803407343	0.01071721112586865	-0.1649806122087277	0.01807137464191799	0.01193040747067402	-0.1918711245326033	0.007352004909344145	-0.03016173509565115	-0.1994812040855451	0.05598043170369805	-0.02433887724489392	-0.1891207669626548	0.05102454177534251	-0.03969406344953959	nan	nan	nan	nan	nan	nan	
483	2.41	-0.1729101683606194	0.07006013413273897	-0.003107290052928265	-0.1717401448627663	0.0736148211798531	-0.02660822075890964	-0.1667580119533642	0.02781960774410436	-0.04096658294936706	-0.1887706266576738	0.05969954388687762	-0.00456378749114278	-0.1683493442205937	0.05743483133009114	-0.04205793004813067	-0.1656593341254424	0.04205859249968457	0.01062349572262189	-0.1607610622651879	0.01765198325623846	0.01215362883789473	-0.1916500779443016	0.00750190121277457	-0.03011574693480428	-0.1980267224234669	0.05617634155243746	-0.02380717451112195	-0.1878363224189244	0.05110082253410174	-0.03933469412452657	nan	nan	nan	nan	nan	nan	
484	2.415	-0.1712196500972756	0.07047993491118908	-0.003112013091860644	-0.1702636004140268	0.07374218355993806	-0.02663752666479016	-0.1657248330050619	0.0277665795876615	-0.04082645003005222	-0.1870964556810772	0.06010191972533285	-0.004183541755249157	-0.1671360245403075	0.05739089003688203	-0.04193214034572081	-0.163629293120105	0.04246974031137407	0.01056392468051849	-0.1566819111735659	0.01728641750791765	0.0123773963729556	-0.1914249509347791	0.007651536393326425	-0.03006442844992076	-0.1965583144268279	0.05636721651940525	-0.02326719676797386	-0.1865335768863811	0.05119016995221585	-0.03896458908373129	nan	nan	nan	nan	nan	nan	
485	2.42	-0.1695013882264979	0.07085671577137981	-0.003071704842576118	-0.1687830696295117	0.07385724781422051	-0.02662597533188	-0.1646832354293822	0.02772313948602714	-0.04067651215174679	-0.1853971786578749	0.06045988180461871	-0.003789535645452979	-0.1659066021088658	0.05736081897449891	-0.04178174132731366	-0.1615727462566965	0.04283489753606808	0.0105344939686055	-0.1527689408533693	0.01690234666547676	0.01256954925485919	-0.1911955326363568	0.007799695813291044	-0.03000798561919061	-0.1950716973970882	0.05655330398476225	-0.02272839257071113	-0.1852177849456942	0.05128902549354982	-0.03857589365568148	-0.1979548045494275	0.01992502846557275	-0.02829718707071721	nan	nan	nan	
486	2.425	-0.1677593442449129	0.071177005863619	-0.002975102265590884	-0.167297413769251	0.07395674726174184	-0.02656434810944248	-0.1636273598914322	0.02769320761650035	-0.04052018563466311	-0.1836760421166412	0.06076464845447083	-0.003368752179802282	-0.1646535575113811	0.0573525582276545	-0.04161211577146544	-0.1594943073377908	0.04312134918545524	0.01052932885629739	-0.1490530624712152	0.01642533024890087	0.01268761562274617	-0.1909611995810525	0.007945791954195135	-0.02994736071478403	-0.1935638446366869	0.05673044516708649	-0.02219051988154127	-0.1838920796473395	0.05139261664536115	-0.03816148067162819	-0.1970323037764472	0.02042320278833886	-0.0284075758046771	nan	nan	nan	
487	2.43	-0.1659958764337192	0.0714231952817018	-0.002817337144086416	-0.1658057244303427	0.07403447749706581	-0.02644160086968705	-0.1625510413625633	0.02767950858194894	-0.04036126824393952	-0.1819356555674557	0.06100503810403397	-0.002914783085354832	-0.1633757979200617	0.05736532121037559	-0.04142098322291195	-0.1574054500517716	0.04330431912002639	0.01055001460732772	-0.1455698708431759	0.01579326613448445	0.01269005112512204	-0.1907204469118552	0.008089381591962052	-0.02988320204123442	-0.1920353594942581	0.05689092447877095	-0.02164647926724283	-0.1825567536223041	0.05149706569284389	-0.03771812568112195	-0.1961178506196571	0.02091927428617395	-0.02851180357715096	nan	nan	nan	
488	2.435	-0.1642121358170784	0.07157359989276142	-0.002601351483521638	-0.1643079238357052	0.0740828944107125	-0.02624592097520993	-0.161448837023762	0.02768321455543855	-0.04020244367025021	-0.180178922366378	0.06116719029632218	-0.00242966513698095	-0.1620761728189498	0.05739323472596099	-0.04120107631326613	-0.1553225502651716	0.04336685591657152	0.01060021407967288	-0.142358111040051	0.0149652485073084	0.01254271879877821	-0.1904705384558043	0.008230270065138502	-0.02981592353042017	-0.1904908768703227	0.05702550599237403	-0.02108673555337568	-0.1812100114465893	0.05159948979856518	-0.03724720306924632	-0.195212166539396	0.0214105381828005	-0.02860081275463005	nan	nan	nan	
